<svg width="1010" height="813" viewBox="0 0 1010 813" fill="none" xmlns="http://www.w3.org/2000/svg">
  <path
    d="M289.349 88.6854V155.871C265.125 108.841 222.059 81.9668 164.189 81.9668C75.3654 81.9668 4.71034 157.887 4.71034 252.619C4.71034 347.351 75.3654 423.271 164.189 423.271C222.059 423.271 265.125 396.397 289.349 349.367V416.553H351.257V88.6854H289.349ZM176.974 364.148C114.394 364.148 64.599 315.102 64.599 252.619C64.599 190.136 114.394 141.09 176.974 141.09C241.573 141.09 289.349 188.121 289.349 252.619C289.349 317.117 241.573 364.148 176.974 364.148Z"
    fill="#2A2B26" />
  <path
    d="M589.592 81.9668C555.946 81.9668 518.264 105.482 503.46 139.747V88.6854H440.879V416.553H503.46V231.791C503.46 175.355 543.834 141.762 584.208 141.762C597.666 141.762 611.797 144.45 623.237 149.825L629.966 89.3572C620.545 85.3261 605.741 81.9668 589.592 81.9668Z"
    fill="#2A2B26" />
  <path
    d="M874.951 359.445C868.222 361.46 858.128 362.804 850.726 362.804C814.389 362.804 786.127 337.945 786.127 295.618V147.809H874.951V88.6854H786.127V0H724.22V88.6854H660.294V147.809H724.22V298.305C724.22 376.241 773.342 420.584 842.651 420.584C855.437 420.584 868.895 417.896 878.315 413.865L874.951 359.445Z"
    fill="#2A2B26" />
  <path
    d="M136.6 813C211.292 813 262.433 771.345 262.433 714.909C262.433 590.615 72.0009 632.942 72.0009 566.428C72.0009 540.897 94.2068 524.101 128.525 524.101C158.133 524.101 202.545 536.866 226.769 560.381L253.685 513.351C225.423 485.805 178.993 471.696 134.581 471.696C60.5615 471.696 10.0936 512.007 10.0936 571.803C10.0936 692.737 199.853 643.692 199.853 716.924C199.853 741.783 174.283 761.267 135.927 761.267C98.2442 761.267 51.1408 744.47 25.5704 719.612L0 765.97C31.6266 794.188 85.459 813 136.6 813Z"
    fill="#2A2B26" />
  <path
    d="M638.64 628.239C638.64 540.225 570.004 471.696 481.853 471.696C387.646 471.696 314.3 546.272 314.3 641.004C314.3 739.096 388.992 813 482.526 813C549.817 813 604.995 785.454 629.892 741.111L580.097 708.862C563.275 738.424 526.265 757.236 484.545 757.236C423.983 757.236 380.917 716.924 374.861 653.77H637.294C637.967 645.707 638.64 635.629 638.64 628.239ZM377.553 606.739C388.992 556.35 427.348 523.429 479.161 523.429C530.975 523.429 570.677 557.694 574.714 606.739H377.553Z"
    fill="#2A2B26" />
  <path
    d="M1010 628.239C1010 540.225 941.364 471.696 853.213 471.696C759.006 471.696 685.659 546.272 685.659 641.004C685.659 739.096 760.352 813 853.886 813C921.176 813 976.355 785.454 1001.25 741.111L951.457 708.862C934.635 738.424 897.625 757.236 855.905 757.236C795.343 757.236 752.277 716.924 746.221 653.77H1008.65C1009.33 645.707 1010 635.629 1010 628.239ZM748.913 606.739C760.352 556.35 798.708 523.429 850.521 523.429C902.335 523.429 942.036 557.694 946.074 606.739H748.913Z"
    fill="#2A2B26" />
</svg>