<svg width="662" height="140" viewBox="0 0 662 140" fill="none" xmlns="http://www.w3.org/2000/svg">
  <path fill-rule="evenodd" clip-rule="evenodd"
    d="M299.999 56.5288V51H220.865L220.901 51.0675H219V132.001H224.529V55.7413L299.999 56.5288Z"
    fill="url(#paint0_linear)" />
  <path d="M287.882 119.849H231.871L225.413 125.516H293.681V56.9843L287.882 62.3878V119.849Z"
    fill="url(#paint1_linear)" />
  <path fill-rule="evenodd" clip-rule="evenodd"
    d="M606.626 92.2225C606.626 69.7168 596.491 51.4449 584.008 51.4449C571.524 51.4449 561.39 69.7168 561.39 92.2225C561.39 114.728 571.524 133 584.008 133C596.491 133 606.626 114.728 606.626 92.2225Z"
    fill="white" stroke="#2A2B26" stroke-width="3.1389" stroke-miterlimit="10" />
  <path fill-rule="evenodd" clip-rule="evenodd"
    d="M587.721 95.3131C587.721 87.2495 581.905 80.7028 574.742 80.7028C567.579 80.7028 561.763 87.2495 561.763 95.3131C561.763 103.377 567.579 109.923 574.742 109.923C581.905 109.923 587.721 103.377 587.721 95.3131Z"
    fill="#FAB70E" stroke="#2A2B26" stroke-width="2.74712" stroke-miterlimit="10" />
  <path fill-rule="evenodd" clip-rule="evenodd"
    d="M572.702 87.621C572.702 85.4 571.121 83.5967 569.173 83.5967C567.225 83.5967 565.644 85.4 565.644 87.621C565.644 89.842 567.225 91.6452 569.173 91.6452C571.121 91.6452 572.702 89.842 572.702 87.621Z"
    fill="white" stroke="#2A2B26" stroke-width="1.56992" stroke-miterlimit="10" />
  <path
    d="M572.748 87.6209C572.748 87.008 572.629 86.4263 572.415 85.9042C572.973 85.7719 573.551 85.7025 574.143 85.7025C578.798 85.7025 582.587 90.003 582.587 95.3131C582.587 100.623 578.798 104.924 574.143 104.924C569.488 104.924 565.699 100.623 565.699 95.3131C565.699 93.6144 566.087 92.0183 566.767 90.6332C567.402 91.2905 568.246 91.6923 569.172 91.6923C571.152 91.6923 572.748 89.8619 572.748 87.6209Z"
    fill="#2A2B26" stroke="#2A2B26" stroke-width="0.0941763" />
  <path fill-rule="evenodd" clip-rule="evenodd"
    d="M660.286 92.2224C660.286 69.7167 650.151 51.4448 637.668 51.4448C625.185 51.4448 615.05 69.7167 615.05 92.2224C615.05 114.728 625.185 133 637.668 133C650.151 133 660.286 114.728 660.286 92.2224Z"
    fill="white" stroke="#2A2B26" stroke-width="3.1389" stroke-miterlimit="10" />
  <path fill-rule="evenodd" clip-rule="evenodd"
    d="M641.38 95.313C641.38 87.2494 635.565 80.7027 628.402 80.7027C621.238 80.7027 615.423 87.2494 615.423 95.313C615.423 103.377 621.238 109.923 628.402 109.923C635.565 109.923 641.38 103.377 641.38 95.313Z"
    fill="#FAB70E" stroke="#2A2B26" stroke-width="2.74712" stroke-miterlimit="10" />
  <path fill-rule="evenodd" clip-rule="evenodd"
    d="M626.362 87.6209C626.362 85.3999 624.78 83.5967 622.833 83.5967C620.885 83.5967 619.304 85.3999 619.304 87.6209C619.304 89.8419 620.885 91.6452 622.833 91.6452C624.78 91.6452 626.362 89.8419 626.362 87.6209Z"
    fill="white" stroke="#2A2B26" stroke-width="1.56992" stroke-miterlimit="10" />
  <path
    d="M626.408 87.621C626.408 87.008 626.289 86.4263 626.075 85.9042C626.633 85.7719 627.211 85.7025 627.803 85.7025C632.458 85.7025 636.247 90.003 636.247 95.3131C636.247 100.623 632.458 104.924 627.803 104.924C623.148 104.924 619.359 100.623 619.359 95.3131C619.359 93.6144 619.747 92.0183 620.427 90.6333C621.062 91.2905 621.906 91.6923 622.832 91.6923C624.811 91.6923 626.408 89.862 626.408 87.621Z"
    fill="#2A2B26" stroke="#2A2B26" stroke-width="0.0941763" />
  <g clip-path="url(#clip0)">
    <rect x="299" y="126.869" width="5" height="81" transform="rotate(90 299 126.869)" fill="#FAB70E" />
    <path d="M293 49.869H299V131.869L293 126.132V49.869Z" fill="#FAB70E" />
    <path fill-rule="evenodd" clip-rule="evenodd"
      d="M298.806 51.6552C298.806 51.3505 298.559 51.1034 298.254 51.1034H218.796C218.491 51.1034 218.244 51.3505 218.244 51.6552V131.114C218.244 131.418 218.491 131.665 218.796 131.665H298.254C298.559 131.665 298.806 131.418 298.806 131.114V51.6552V51.6552Z"
      stroke="#292A26" stroke-width="3.1389" stroke-miterlimit="1.5" stroke-linecap="round" stroke-linejoin="round" />
    <path fill-rule="evenodd" clip-rule="evenodd"
      d="M291.429 58.4801C291.744 58.1646 291.839 57.6899 291.668 57.2775C291.497 56.8651 291.095 56.5963 290.648 56.5963C278.981 56.5963 232.624 56.5963 224.847 56.5963C224.553 56.5963 224.271 56.7134 224.064 56.9217C223.857 57.1301 223.741 57.4123 223.743 57.7061C223.788 65.4592 224.053 111.544 224.119 123.132C224.122 123.577 224.392 123.977 224.803 124.146C225.215 124.316 225.688 124.221 226.003 123.906C227.199 122.71 228.641 121.268 229.273 120.636C229.48 120.429 229.596 120.149 229.596 119.856C229.596 114.896 229.596 71.101 229.596 63.5589C229.596 63.2661 229.712 62.9854 229.919 62.7785C230.126 62.5715 230.407 62.4553 230.699 62.4553H286.997C287.289 62.4553 287.57 62.339 287.777 62.132C288.463 61.4462 290.109 59.8002 291.429 58.4801Z"
      fill="#292A26" stroke="#292A26" stroke-width="3.1389" stroke-miterlimit="1.5" stroke-linecap="round"
      stroke-linejoin="round" />
    <path fill-rule="evenodd" clip-rule="evenodd"
      d="M293.312 57.148C293.312 56.8433 293.065 56.5963 292.76 56.5963C286.581 56.5963 230.467 56.5963 224.288 56.5963C223.983 56.5963 223.736 56.8433 223.736 57.148C223.736 63.3273 223.736 119.441 223.736 125.621C223.736 125.925 223.983 126.173 224.288 126.173C230.467 126.173 286.581 126.173 292.76 126.173C293.065 126.173 293.312 125.925 293.312 125.621V57.148Z"
      stroke="#292A26" stroke-width="3.1389" stroke-miterlimit="1.5" stroke-linecap="round" stroke-linejoin="round" />
    <path fill-rule="evenodd" clip-rule="evenodd"
      d="M287.454 63.007C287.454 62.7022 287.207 62.4552 286.902 62.4552H230.147C229.843 62.4552 229.596 62.7022 229.596 63.007V119.761C229.596 120.066 229.843 120.313 230.147 120.313H286.902C287.207 120.313 287.454 120.066 287.454 119.761V63.007V63.007Z"
      stroke="#292A26" stroke-width="3.1389" stroke-miterlimit="1.5" stroke-linecap="round" stroke-linejoin="round" />
    <path d="M298.591 131.451L287.454 120.313" stroke="#292A26" stroke-width="3.1389" stroke-miterlimit="1.5"
      stroke-linecap="round" stroke-linejoin="round" />
    <path d="M218.458 131.451L229.596 120.313" stroke="#292A26" stroke-width="3.1389" stroke-miterlimit="1.5"
      stroke-linecap="round" stroke-linejoin="round" />
    <path d="M298.591 51.3179L287.454 62.4553" stroke="#292A26" stroke-width="3.1389" stroke-miterlimit="1.5"
      stroke-linecap="round" stroke-linejoin="round" />
    <path d="M218.458 51.3179L229.596 62.4553" stroke="#292A26" stroke-width="3.1389" stroke-miterlimit="1.5"
      stroke-linecap="round" stroke-linejoin="round" />
  </g>
  <path
    d="M53.841 63.459V71.405C49.32 65.377 42.744 62.089 34.25 62.089C17.125 62.089 3.562 77.981 3.562 97.298C3.562 116.615 17.125 132.37 34.25 132.37C42.744 132.37 49.32 129.082 53.841 123.054V131H75.898V63.459H53.841ZM39.456 111.409C31.51 111.409 24.934 105.107 24.934 97.298C24.934 89.352 31.51 83.187 39.456 83.187C47.402 83.187 53.841 89.352 53.841 97.298C53.841 105.107 47.402 111.409 39.456 111.409ZM125.582 62.089C119.965 62.089 112.704 65.925 109.827 71.131V63.459H87.9069V131H109.827V99.764C109.827 87.708 117.499 83.324 123.253 83.324C126.404 83.324 129.418 83.872 132.295 85.105L134.761 63.733C132.569 62.774 129.281 62.089 125.582 62.089ZM188.633 110.587C187.126 111.135 184.249 111.683 182.331 111.683C177.262 111.683 173.015 107.984 173.015 102.778V84.557H188.907V63.459H173.015V46.197H150.958V63.459H138.765V84.557H150.958V103.874C150.958 121.958 162.466 132.233 178.906 132.233C182.742 132.233 186.989 131.411 189.729 130.041L188.633 110.587ZM360.555 132.37C376.584 132.37 387.818 123.191 387.681 110.176C387.27 86.612 351.924 90.311 351.787 82.639C351.787 80.447 354.253 78.803 358.226 78.803C365.35 78.803 373.981 81.68 379.461 85.516L385.489 69.624C378.365 64.281 368.638 62.089 359.185 62.089C342.882 62.089 331.1 72.364 331.374 85.242C331.785 110.039 366.72 103.6 366.857 111.683C366.857 114.012 363.706 115.656 358.637 115.656C350.554 115.656 342.197 113.327 335.758 108.806L329.593 124.013C337.95 129.904 348.773 132.37 360.555 132.37ZM461.242 94.421C461.242 76.337 446.857 62.089 428.499 62.089C408.634 62.089 393.29 77.296 393.29 97.024C393.29 116.889 409.045 132.37 428.91 132.37C443.021 132.37 454.392 127.301 459.187 118.533L441.925 107.984C440.144 111.272 434.527 113.738 429.458 113.738C421.649 113.738 416.443 110.176 414.525 102.915H460.42C460.968 99.901 461.242 97.024 461.242 94.421ZM414.525 89.078C416.169 83.187 420.416 79.899 427.266 79.899C433.157 79.899 438.226 83.735 439.185 89.078H414.525ZM535.762 94.421C535.762 76.337 521.377 62.089 503.019 62.089C483.154 62.089 467.81 77.296 467.81 97.024C467.81 116.889 483.565 132.37 503.43 132.37C517.541 132.37 528.912 127.301 533.707 118.533L516.445 107.984C514.664 111.272 509.047 113.738 503.978 113.738C496.169 113.738 490.963 110.176 489.045 102.915H534.94C535.488 99.901 535.762 97.024 535.762 94.421ZM489.045 89.078C490.689 83.187 494.936 79.899 501.786 79.899C507.677 79.899 512.746 83.735 513.705 89.078H489.045Z"
    fill="#2A2B26" />
  <defs>
    <linearGradient id="paint0_linear" x1="222.5" y1="53.5" x2="300" y2="137.5" gradientUnits="userSpaceOnUse">
      <stop stop-color="#FAB70E" />
      <stop offset="1" stop-color="#EBC42E" stop-opacity="0" />
    </linearGradient>
    <linearGradient id="paint1_linear" x1="292.231" y1="124.461" x2="238.065" y2="89.0096"
      gradientUnits="userSpaceOnUse">
      <stop stop-color="#FFF1AD" />
      <stop offset="1" stop-color="#FFFCEB" />
    </linearGradient>
    <clipPath id="clip0">
      <rect width="82.7685" height="82.7685" fill="white" transform="translate(217.14 50)" />
    </clipPath>
  </defs>
</svg>