<svg width="119" height="119" viewBox="0 0 119 119" fill="none" xmlns="http://www.w3.org/2000/svg">
  <path fill-rule="evenodd" clip-rule="evenodd"
    d="M116.997 8.91761V1H3.67027L3.7226 1.09778H1V117H8.91761V7.78983L116.997 8.91761Z" fill="url(#paint0_linear)" />
  <path d="M100.46 101.026H20.248L11 109.142H108.764V11L100.46 18.7381V101.026Z" fill="url(#paint1_linear)" />
  <path fill-rule="evenodd" clip-rule="evenodd"
    d="M117.509 2.5L108.952 10V108.668L110.051 109.718H9L1.99998 116.848H117.509V109.718L117.509 2.5Z" fill="#FAB70E" />
  <path fill-rule="evenodd" clip-rule="evenodd"
    d="M56.6326 59.5001C56.6326 44.1753 49.7315 31.7334 41.2313 31.7334C32.731 31.7334 25.8299 44.1753 25.8299 59.5001C25.8299 74.8249 32.731 87.2668 41.2313 87.2668C49.7315 87.2668 56.6326 74.8249 56.6326 59.5001Z"
    fill="white" stroke="#2A2B26" stroke-width="3.1389" stroke-miterlimit="10" />
  <path fill-rule="evenodd" clip-rule="evenodd"
    d="M43.7595 61.6044C43.7595 56.1136 39.7995 51.6558 34.9218 51.6558C30.0441 51.6558 26.0841 56.1136 26.0841 61.6044C26.0841 67.0951 30.0441 71.5529 34.9218 71.5529C39.7995 71.5529 43.7595 67.0951 43.7595 61.6044Z"
    fill="#FAB70E" stroke="#2A2B26" stroke-width="2.74712" stroke-miterlimit="10" />
  <path fill-rule="evenodd" clip-rule="evenodd"
    d="M33.5327 56.3667C33.5327 54.8544 32.456 53.6265 31.1299 53.6265C29.8036 53.6265 28.7269 54.8544 28.7269 56.3667C28.7269 57.879 29.8036 59.1069 31.1299 59.1069C32.456 59.1069 33.5327 57.879 33.5327 56.3667Z"
    fill="white" stroke="#2A2B26" stroke-width="1.56992" stroke-miterlimit="10" />
  <path
    d="M33.5793 56.3667C33.5793 55.9538 33.5003 55.5615 33.3581 55.2084C33.7315 55.1211 34.118 55.0754 34.514 55.0754C37.6737 55.0754 40.2489 57.9952 40.2489 61.6045C40.2489 65.214 37.6737 68.1338 34.514 68.1338C31.3544 68.1338 28.7791 65.214 28.7791 61.6045C28.7791 60.458 29.0394 59.3803 29.4959 58.4437C29.9288 58.8847 30.5012 59.1541 31.1294 59.1541C32.4871 59.1541 33.5793 57.8991 33.5793 56.3667Z"
    fill="#2A2B26" stroke="#2A2B26" stroke-width="0.0941763" />
  <path fill-rule="evenodd" clip-rule="evenodd"
    d="M93.1714 59.5001C93.1714 44.1753 86.2703 31.7334 77.77 31.7334C69.2698 31.7334 62.3687 44.1753 62.3687 59.5001C62.3687 74.8249 69.2698 87.2668 77.77 87.2668C86.2703 87.2668 93.1714 74.8249 93.1714 59.5001Z"
    fill="white" stroke="#2A2B26" stroke-width="3.1389" stroke-miterlimit="10" />
  <path fill-rule="evenodd" clip-rule="evenodd"
    d="M80.298 61.6044C80.298 56.1136 76.338 51.6558 71.4603 51.6558C66.5826 51.6558 62.6226 56.1136 62.6226 61.6044C62.6226 67.0951 66.5826 71.5529 71.4603 71.5529C76.338 71.5529 80.298 67.0951 80.298 61.6044Z"
    fill="#FAB70E" stroke="#2A2B26" stroke-width="2.74712" stroke-miterlimit="10" />
  <path fill-rule="evenodd" clip-rule="evenodd"
    d="M70.0712 56.3667C70.0712 54.8544 68.9945 53.6265 67.6684 53.6265C66.3421 53.6265 65.2654 54.8544 65.2654 56.3667C65.2654 57.879 66.3421 59.1069 67.6684 59.1069C68.9945 59.1069 70.0712 57.879 70.0712 56.3667Z"
    fill="white" stroke="#2A2B26" stroke-width="1.56992" stroke-miterlimit="10" />
  <path
    d="M70.1178 56.3667C70.1178 55.9538 70.0388 55.5615 69.8966 55.2084C70.27 55.1211 70.6565 55.0754 71.0525 55.0754C74.2122 55.0754 76.7874 57.9952 76.7874 61.6045C76.7874 65.214 74.2122 68.1338 71.0525 68.1338C67.8929 68.1338 65.3176 65.214 65.3176 61.6045C65.3176 60.458 65.5779 59.3803 66.0344 58.4437C66.4673 58.8847 67.0397 59.1541 67.6679 59.1541C69.0256 59.1541 70.1178 57.8991 70.1178 56.3667Z"
    fill="#2A2B26" stroke="#2A2B26" stroke-width="0.0941763" />
  <path fill-rule="evenodd" clip-rule="evenodd"
    d="M117.414 2.37973C117.414 1.94162 117.059 1.58643 116.621 1.58643H2.38003C1.94191 1.58643 1.58672 1.94162 1.58672 2.37973V116.621C1.58672 117.059 1.94191 117.414 2.38003 117.414H116.621C117.059 117.414 117.414 117.059 117.414 116.621V2.37973V2.37973Z"
    stroke="#2A2B26" stroke-width="3.1389" stroke-miterlimit="1.5" stroke-linecap="round" stroke-linejoin="round" />
  <path fill-rule="evenodd" clip-rule="evenodd"
    d="M106.808 12.1924C107.262 11.7387 107.398 11.0562 107.152 10.4633C106.907 9.8704 106.328 9.48389 105.686 9.48389C88.9108 9.48389 22.2618 9.48389 11.08 9.48389C10.6577 9.48389 10.2527 9.65229 9.9549 9.95179C9.65702 10.2514 9.49099 10.6572 9.49337 11.0796C9.55744 22.2266 9.93824 88.4851 10.034 105.145C10.0377 105.785 10.4257 106.36 11.0177 106.604C11.6098 106.847 12.29 106.711 12.7426 106.258C14.4621 104.539 16.5348 102.466 17.4432 101.557C17.7408 101.26 17.908 100.856 17.908 100.435C17.908 93.3046 17.908 30.338 17.908 19.4944C17.908 19.0735 18.0752 18.6699 18.3728 18.3724C18.6703 18.0748 19.0738 17.9077 19.4947 17.9077H100.436C100.857 17.9077 101.26 17.7405 101.558 17.4429C102.544 16.4569 104.91 14.0903 106.808 12.1924Z"
    fill="#292A26" stroke="#292A26" stroke-width="3.1389" stroke-miterlimit="1.5" stroke-linecap="round"
    stroke-linejoin="round" />
  <path fill-rule="evenodd" clip-rule="evenodd"
    d="M109.516 10.2772C109.516 9.83908 109.161 9.48389 108.723 9.48389C99.8386 9.48389 19.161 9.48389 10.2764 9.48389C9.83832 9.48389 9.48313 9.83908 9.48313 10.2772C9.48313 19.1613 9.48313 99.839 9.48313 108.724C9.48313 109.162 9.83832 109.517 10.2764 109.517C19.1606 109.517 99.8382 109.517 108.723 109.517C109.161 109.517 109.516 109.162 109.516 108.724V10.2772Z"
    stroke="#2A2B26" stroke-width="3.1389" stroke-miterlimit="1.5" stroke-linecap="round" stroke-linejoin="round" />
  <path fill-rule="evenodd" clip-rule="evenodd"
    d="M101.093 18.7005C101.093 18.2624 100.738 17.9072 100.299 17.9072H18.7011C18.263 17.9072 17.9078 18.2624 17.9078 18.7005V100.299C17.9078 100.737 18.263 101.092 18.7011 101.092H100.299C100.738 101.092 101.093 100.737 101.093 100.299V18.7005V18.7005Z"
    stroke="#292A26" stroke-width="3.1389" stroke-miterlimit="1.5" stroke-linecap="round" stroke-linejoin="round" />
  <path d="M117.106 117.105L101.093 101.093" stroke="#2A2B26" stroke-width="3.1389" stroke-miterlimit="1.5"
    stroke-linecap="round" stroke-linejoin="round" />
  <path d="M1.89494 117.105L17.9077 101.093" stroke="#2A2B26" stroke-width="3.1389" stroke-miterlimit="1.5"
    stroke-linecap="round" stroke-linejoin="round" />
  <path d="M117.106 1.89453L101.093 17.9073" stroke="#2A2B26" stroke-width="3.1389" stroke-miterlimit="1.5"
    stroke-linecap="round" stroke-linejoin="round" />
  <path d="M1.89494 1.89453L17.9077 17.9073" stroke="#2A2B26" stroke-width="3.1389" stroke-miterlimit="1.5"
    stroke-linecap="round" stroke-linejoin="round" />
  <defs>
    <linearGradient id="paint0_linear" x1="6.01225" y1="4.58022" x2="116.999" y2="124.874"
      gradientUnits="userSpaceOnUse">
      <stop stop-color="#FAB70E" />
      <stop offset="1" stop-color="#EBC42E" stop-opacity="0" />
    </linearGradient>
    <linearGradient id="paint1_linear" x1="106.688" y1="107.632" x2="29.1185" y2="56.8625"
      gradientUnits="userSpaceOnUse">
      <stop stop-color="#FFF1AD" />
      <stop offset="1" stop-color="#FFFCEB" />
    </linearGradient>
  </defs>
</svg>