<svg width="540" height="540" viewBox="0 0 540 540" fill="none" xmlns="http://www.w3.org/2000/svg">
  <circle cx="269.5" cy="269.5" r="143.5" fill="#FAB70E" />
  <rect x="107" y="203" width="325" height="54" rx="15" fill="white" stroke="#2A2B26" stroke-width="2" />
  <path
    d="M142 239V237C142 235.939 141.579 234.922 140.828 234.172C140.078 233.421 139.061 233 138 233H130C128.939 233 127.922 233.421 127.172 234.172C126.421 234.922 126 235.939 126 237V239"
    stroke="#2A2B26" stroke-width="2" stroke-linecap="round" stroke-linejoin="round" />
  <path
    d="M134 229C136.209 229 138 227.209 138 225C138 222.791 136.209 221 134 221C131.791 221 130 222.791 130 225C130 227.209 131.791 229 134 229Z"
    stroke="#2A2B26" stroke-width="2" stroke-linecap="round" stroke-linejoin="round" />
  <path
    d="M162.305 236.173V231.427H169.676V229.642H162.305V225.127H170.579V223.3H160.205V238H170.873V236.173H162.305ZM187.902 226.765C186.012 226.765 184.458 227.563 183.618 228.823C182.883 227.437 181.455 226.765 179.754 226.765C178.074 226.765 176.709 227.395 175.911 228.529V226.87H173.979V238H175.995V232.267C175.995 229.852 177.318 228.571 179.334 228.571C181.161 228.571 182.211 229.642 182.211 231.826V238H184.227V232.267C184.227 229.852 185.55 228.571 187.566 228.571C189.393 228.571 190.443 229.642 190.443 231.826V238H192.459V231.595C192.459 228.319 190.611 226.765 187.902 226.765ZM200.222 226.765C198.437 226.765 196.778 227.269 195.623 228.193L196.463 229.705C197.324 228.97 198.668 228.508 199.991 228.508C201.986 228.508 202.973 229.495 202.973 231.196V231.595H199.781C196.463 231.595 195.308 233.065 195.308 234.85C195.308 236.782 196.904 238.126 199.424 238.126C201.167 238.126 202.406 237.538 203.078 236.53V238H204.989V231.28C204.989 228.235 203.267 226.765 200.222 226.765ZM199.76 236.572C198.227 236.572 197.303 235.879 197.303 234.766C197.303 233.821 197.87 233.044 199.865 233.044H202.973V234.598C202.469 235.879 201.272 236.572 199.76 236.572ZM209.728 224.728C210.526 224.728 211.093 224.14 211.093 223.384C211.093 222.67 210.505 222.103 209.728 222.103C208.951 222.103 208.363 222.691 208.363 223.426C208.363 224.161 208.951 224.728 209.728 224.728ZM208.72 238H210.736V226.87H208.72V238ZM214.585 238H216.601V222.418H214.585V238ZM230.143 226.765C228.358 226.765 226.699 227.269 225.544 228.193L226.384 229.705C227.245 228.97 228.589 228.508 229.912 228.508C231.907 228.508 232.894 229.495 232.894 231.196V231.595H229.702C226.384 231.595 225.229 233.065 225.229 234.85C225.229 236.782 226.825 238.126 229.345 238.126C231.088 238.126 232.327 237.538 232.999 236.53V238H234.91V231.28C234.91 228.235 233.188 226.765 230.143 226.765ZM229.681 236.572C228.148 236.572 227.224 235.879 227.224 234.766C227.224 233.821 227.791 233.044 229.786 233.044H232.894V234.598C232.39 235.879 231.193 236.572 229.681 236.572ZM247.186 222.418V228.55C246.262 227.353 244.876 226.765 243.301 226.765C240.046 226.765 237.673 229.033 237.673 232.435C237.673 235.837 240.046 238.126 243.301 238.126C244.939 238.126 246.367 237.496 247.27 236.236V238H249.202V222.418H247.186ZM243.469 236.362C241.327 236.362 239.71 234.808 239.71 232.435C239.71 230.062 241.327 228.529 243.469 228.529C245.59 228.529 247.207 230.062 247.207 232.435C247.207 234.808 245.59 236.362 243.469 236.362ZM261.5 222.418V228.55C260.576 227.353 259.19 226.765 257.615 226.765C254.36 226.765 251.987 229.033 251.987 232.435C251.987 235.837 254.36 238.126 257.615 238.126C259.253 238.126 260.681 237.496 261.584 236.236V238H263.516V222.418H261.5ZM257.783 236.362C255.641 236.362 254.024 234.808 254.024 232.435C254.024 230.062 255.641 228.529 257.783 228.529C259.904 228.529 261.521 230.062 261.521 232.435C261.521 234.808 259.904 236.362 257.783 236.362ZM269.263 228.739V226.87H267.331V238H269.347V232.456C269.347 230.02 270.691 228.697 272.854 228.697C273.001 228.697 273.148 228.697 273.316 228.718V226.765C271.363 226.765 269.977 227.437 269.263 228.739ZM285.757 232.498C285.757 229.075 283.468 226.765 280.255 226.765C277.042 226.765 274.669 229.138 274.669 232.435C274.669 235.753 277.063 238.126 280.654 238.126C282.502 238.126 284.035 237.496 285.043 236.32L283.93 235.018C283.111 235.921 282.019 236.362 280.717 236.362C278.512 236.362 276.937 235.06 276.685 233.107H285.715C285.736 232.918 285.757 232.666 285.757 232.498ZM280.255 228.466C282.208 228.466 283.615 229.789 283.825 231.658H276.685C276.895 229.768 278.323 228.466 280.255 228.466ZM291.749 238.126C294.71 238.126 296.558 236.845 296.558 234.829C296.558 230.503 289.502 232.645 289.502 230.02C289.502 229.138 290.363 228.487 292.127 228.487C293.219 228.487 294.332 228.718 295.34 229.369L296.201 227.773C295.235 227.143 293.597 226.765 292.148 226.765C289.292 226.765 287.507 228.109 287.507 230.104C287.507 234.535 294.542 232.372 294.542 234.871C294.542 235.816 293.765 236.383 291.896 236.383C290.447 236.383 288.935 235.9 287.99 235.228L287.15 236.824C288.074 237.559 289.901 238.126 291.749 238.126ZM302.269 238.126C305.23 238.126 307.078 236.845 307.078 234.829C307.078 230.503 300.022 232.645 300.022 230.02C300.022 229.138 300.883 228.487 302.647 228.487C303.739 228.487 304.852 228.718 305.86 229.369L306.721 227.773C305.755 227.143 304.117 226.765 302.668 226.765C299.812 226.765 298.027 228.109 298.027 230.104C298.027 234.535 305.062 232.372 305.062 234.871C305.062 235.816 304.285 236.383 302.416 236.383C300.967 236.383 299.455 235.9 298.51 235.228L297.67 236.824C298.594 237.559 300.421 238.126 302.269 238.126Z"
    fill="#2A2B26" />
  <rect x="107" y="283" width="325" height="54" rx="15" fill="white" stroke="#2A2B26" stroke-width="2" />
  <path
    d="M141 309H127C125.895 309 125 309.895 125 311V318C125 319.105 125.895 320 127 320H141C142.105 320 143 319.105 143 318V311C143 309.895 142.105 309 141 309Z"
    stroke="#2A2B26" stroke-width="2" stroke-linecap="round" stroke-linejoin="round" />
  <path
    d="M129 309V305C129 303.674 129.527 302.402 130.464 301.464C131.402 300.527 132.674 300 134 300C135.326 300 136.598 300.527 137.536 301.464C138.473 302.402 139 303.674 139 305V309"
    stroke="#2A2B26" stroke-width="2" stroke-linecap="round" stroke-linejoin="round" />
  <path
    d="M167.387 318.714C166.239 318.714 165.161 318.497 164.153 318.063C163.145 317.643 162.256 317.055 161.486 316.299C160.73 315.529 160.135 314.64 159.701 313.632C159.281 312.624 159.071 311.546 159.071 310.398C159.071 309.236 159.281 308.158 159.701 307.164C160.135 306.156 160.73 305.274 161.486 304.518C162.256 303.748 163.145 303.153 164.153 302.733C165.161 302.299 166.239 302.082 167.387 302.082C168.549 302.082 169.627 302.299 170.621 302.733C171.629 303.153 172.511 303.748 173.267 304.518C174.037 305.274 174.632 306.156 175.052 307.164C175.486 308.158 175.703 309.236 175.703 310.398C175.703 311.546 175.486 312.624 175.052 313.632C174.632 314.64 174.037 315.529 173.267 316.299C172.511 317.055 171.629 317.643 170.621 318.063C169.627 318.497 168.549 318.714 167.387 318.714ZM186.152 318.714C185.004 318.714 183.926 318.497 182.918 318.063C181.91 317.643 181.021 317.055 180.251 316.299C179.495 315.529 178.9 314.64 178.466 313.632C178.046 312.624 177.836 311.546 177.836 310.398C177.836 309.236 178.046 308.158 178.466 307.164C178.9 306.156 179.495 305.274 180.251 304.518C181.021 303.748 181.91 303.153 182.918 302.733C183.926 302.299 185.004 302.082 186.152 302.082C187.314 302.082 188.392 302.299 189.386 302.733C190.394 303.153 191.276 303.748 192.032 304.518C192.802 305.274 193.397 306.156 193.817 307.164C194.251 308.158 194.468 309.236 194.468 310.398C194.468 311.546 194.251 312.624 193.817 313.632C193.397 314.64 192.802 315.529 192.032 316.299C191.276 317.055 190.394 317.643 189.386 318.063C188.392 318.497 187.314 318.714 186.152 318.714ZM204.916 318.714C203.768 318.714 202.69 318.497 201.682 318.063C200.674 317.643 199.785 317.055 199.015 316.299C198.259 315.529 197.664 314.64 197.23 313.632C196.81 312.624 196.6 311.546 196.6 310.398C196.6 309.236 196.81 308.158 197.23 307.164C197.664 306.156 198.259 305.274 199.015 304.518C199.785 303.748 200.674 303.153 201.682 302.733C202.69 302.299 203.768 302.082 204.916 302.082C206.078 302.082 207.156 302.299 208.15 302.733C209.158 303.153 210.04 303.748 210.796 304.518C211.566 305.274 212.161 306.156 212.581 307.164C213.015 308.158 213.232 309.236 213.232 310.398C213.232 311.546 213.015 312.624 212.581 313.632C212.161 314.64 211.566 315.529 210.796 316.299C210.04 317.055 209.158 317.643 208.15 318.063C207.156 318.497 206.078 318.714 204.916 318.714ZM223.681 318.714C222.533 318.714 221.455 318.497 220.447 318.063C219.439 317.643 218.55 317.055 217.78 316.299C217.024 315.529 216.429 314.64 215.995 313.632C215.575 312.624 215.365 311.546 215.365 310.398C215.365 309.236 215.575 308.158 215.995 307.164C216.429 306.156 217.024 305.274 217.78 304.518C218.55 303.748 219.439 303.153 220.447 302.733C221.455 302.299 222.533 302.082 223.681 302.082C224.843 302.082 225.921 302.299 226.915 302.733C227.923 303.153 228.805 303.748 229.561 304.518C230.331 305.274 230.926 306.156 231.346 307.164C231.78 308.158 231.997 309.236 231.997 310.398C231.997 311.546 231.78 312.624 231.346 313.632C230.926 314.64 230.331 315.529 229.561 316.299C228.805 317.055 227.923 317.643 226.915 318.063C225.921 318.497 224.843 318.714 223.681 318.714ZM242.446 318.714C241.298 318.714 240.22 318.497 239.212 318.063C238.204 317.643 237.315 317.055 236.545 316.299C235.789 315.529 235.194 314.64 234.76 313.632C234.34 312.624 234.13 311.546 234.13 310.398C234.13 309.236 234.34 308.158 234.76 307.164C235.194 306.156 235.789 305.274 236.545 304.518C237.315 303.748 238.204 303.153 239.212 302.733C240.22 302.299 241.298 302.082 242.446 302.082C243.608 302.082 244.686 302.299 245.68 302.733C246.688 303.153 247.57 303.748 248.326 304.518C249.096 305.274 249.691 306.156 250.111 307.164C250.545 308.158 250.762 309.236 250.762 310.398C250.762 311.546 250.545 312.624 250.111 313.632C249.691 314.64 249.096 315.529 248.326 316.299C247.57 317.055 246.688 317.643 245.68 318.063C244.686 318.497 243.608 318.714 242.446 318.714ZM261.21 318.714C260.062 318.714 258.984 318.497 257.976 318.063C256.968 317.643 256.079 317.055 255.309 316.299C254.553 315.529 253.958 314.64 253.524 313.632C253.104 312.624 252.894 311.546 252.894 310.398C252.894 309.236 253.104 308.158 253.524 307.164C253.958 306.156 254.553 305.274 255.309 304.518C256.079 303.748 256.968 303.153 257.976 302.733C258.984 302.299 260.062 302.082 261.21 302.082C262.372 302.082 263.45 302.299 264.444 302.733C265.452 303.153 266.334 303.748 267.09 304.518C267.86 305.274 268.455 306.156 268.875 307.164C269.309 308.158 269.526 309.236 269.526 310.398C269.526 311.546 269.309 312.624 268.875 313.632C268.455 314.64 267.86 315.529 267.09 316.299C266.334 317.055 265.452 317.643 264.444 318.063C263.45 318.497 262.372 318.714 261.21 318.714ZM279.975 318.714C278.827 318.714 277.749 318.497 276.741 318.063C275.733 317.643 274.844 317.055 274.074 316.299C273.318 315.529 272.723 314.64 272.289 313.632C271.869 312.624 271.659 311.546 271.659 310.398C271.659 309.236 271.869 308.158 272.289 307.164C272.723 306.156 273.318 305.274 274.074 304.518C274.844 303.748 275.733 303.153 276.741 302.733C277.749 302.299 278.827 302.082 279.975 302.082C281.137 302.082 282.215 302.299 283.209 302.733C284.217 303.153 285.099 303.748 285.855 304.518C286.625 305.274 287.22 306.156 287.64 307.164C288.074 308.158 288.291 309.236 288.291 310.398C288.291 311.546 288.074 312.624 287.64 313.632C287.22 314.64 286.625 315.529 285.855 316.299C285.099 317.055 284.217 317.643 283.209 318.063C282.215 318.497 281.137 318.714 279.975 318.714Z"
    fill="#18191F" />
  <path d="M405 135L135 405" stroke="#18191F" stroke-width="3" stroke-linecap="round" stroke-linejoin="round" />
  <path d="M135 135L405 405" stroke="#2A2B26" stroke-width="3" stroke-linecap="round" stroke-linejoin="round" />
</svg>