<svg width="22" height="22" viewBox="0 0 22 22" fill="none" xmlns="http://www.w3.org/2000/svg">
  <path
    d="M6.11664 9.34572L2.85343 4.30119C4.88653 1.75744 7.93617 0.356658 11.0542 0.343767C12.8609 0.330876 14.706 0.794939 16.3846 1.77033C18.2383 2.85314 19.6478 4.40861 20.5448 6.19611L11.776 5.73205C9.29441 5.58595 6.93244 6.99103 6.11664 9.34572ZM7.52186 11C7.52186 12.9852 9.11929 14.5922 11.0926 14.5922C13.0659 14.5922 14.6633 12.9852 14.6633 11C14.6633 9.01486 13.0659 7.40783 11.0926 7.40783C9.11929 7.40783 7.52186 9.01056 7.52186 11ZM20.9719 7.1672L15.005 7.47658C16.6238 9.38009 16.6494 12.1258 15.2869 14.2313L10.4989 21.6391C12.485 21.7465 14.5309 21.3082 16.3846 20.2254C20.9719 17.5613 22.8299 11.9754 20.9719 7.1672ZM6.2106 13.0453L2.22557 5.16056C1.13641 6.83634 0.5 8.84728 0.5 11C0.5 16.3281 4.37826 20.741 9.44818 21.5231L12.1689 16.1606C9.70872 16.6246 7.33393 15.2668 6.2106 13.0453Z"
    fill="#2A2B26" />
</svg>