<svg width="537" height="496" viewBox="0 0 537 496" fill="none" xmlns="http://www.w3.org/2000/svg">
<circle cx="251" cy="248" r="248" fill="#FAB70E"/>
<path d="M175 223.494C232.714 223.494 279.5 176.708 279.5 118.994C279.5 61.2801 232.714 14.4939 175 14.4939C117.286 14.4939 70.5001 61.2801 70.5001 118.994C70.5001 176.708 117.286 223.494 175 223.494Z" fill="#2A2B26" stroke="#2A2B26" stroke-width="3"/>
<circle cx="175" cy="114" r="104.5" fill="white" stroke="#2A2B26" stroke-width="3"/>
<path d="M131.098 116.676C130.53 116.95 130.195 117.549 130.258 118.176C130.321 118.803 130.769 119.324 131.379 119.48L167.35 128.652L176.346 165.357C176.497 165.976 177.023 166.431 177.657 166.493C178.291 166.555 178.895 166.209 179.163 165.632L220.611 76.3818C220.878 75.8068 220.754 75.1261 220.303 74.6812C219.851 74.2364 219.168 74.1236 218.598 74.3994L131.098 116.676Z" stroke="#2A2B26" stroke-width="3" stroke-linecap="round" stroke-linejoin="round"/>
<rect x="1.50008" y="194.5" width="402.32" height="220.022" rx="6.44572" fill="#2A2B26" stroke="#2A2B26" stroke-width="3"/>
<rect x="1.50006" y="194.5" width="402.32" height="215.469" rx="6.44572" fill="white" stroke="#2A2B26" stroke-width="3"/>
<path d="M302.945 269.51C318.077 269.51 330.415 257.564 330.415 242.743C330.415 227.922 318.077 215.977 302.945 215.977C287.814 215.977 275.476 227.922 275.476 242.743C275.476 257.564 287.814 269.51 302.945 269.51Z" stroke="#2A2B26" stroke-width="3"/>
<path d="M4.00006 250.635L183.022 408.469L293.171 311.356L403.32 408.469" stroke="#2A2B26" stroke-width="3" stroke-linecap="round" stroke-linejoin="round"/>
<circle cx="435.5" cy="394.474" r="100" fill="#2A2B26" stroke="#2A2B26" stroke-width="3"/>
<circle cx="435.5" cy="391.5" r="100" fill="white" stroke="#2A2B26" stroke-width="3"/>
<path d="M418.76 431.272C418.76 431.842 419.083 432.362 419.594 432.616C420.105 432.869 420.715 432.811 421.169 432.466L473.95 392.322C474.323 392.039 474.542 391.597 474.542 391.128C474.542 390.66 474.323 390.218 473.95 389.934L421.169 349.791C420.715 349.446 420.105 349.388 419.594 349.641C419.083 349.894 418.76 350.415 418.76 350.985V431.272Z" stroke="#2A2B26" stroke-width="3" stroke-linecap="round" stroke-linejoin="round"/>
<rect x="328.5" y="18.2905" width="121.584" height="123.166" rx="9.36749" fill="#2A2B26" stroke="#2A2B26" stroke-width="3"/>
<rect x="328.5" y="17.5" width="121.728" height="121.728" rx="9.36749" fill="white" stroke="#2A2B26" stroke-width="3"/>
<path d="M330 65.6479L383.445 117.479L416.328 85.588L449.212 117.479" stroke="#2A2B26" stroke-width="3" stroke-linecap="round" stroke-linejoin="round"/>
<circle cx="400.019" cy="53.899" r="16.7215" stroke="#2A2B26" stroke-width="3"/>
</svg>
