<svg width="537" height="496" viewBox="0 0 537 496" fill="none" xmlns="http://www.w3.org/2000/svg">
<circle cx="268" cy="248" r="248" fill="#FAB70E"/>
<rect x="1.5" y="136.298" width="534" height="93.9358" rx="17.5" fill="white" stroke="#2A2B26" stroke-width="3"/>
<g clip-path="url(#clip0)">
<path d="M51.1469 197.812V194.434C51.1469 192.642 50.4351 190.923 49.1679 189.656C47.9008 188.389 46.1822 187.677 44.3902 187.677H30.8766C29.0845 187.677 27.3659 188.389 26.0988 189.656C24.8316 190.923 24.1198 192.642 24.1198 194.434V197.812" stroke="#2A2B26" stroke-width="3" stroke-linecap="round" stroke-linejoin="round"/>
<path d="M37.6334 180.92C41.365 180.92 44.3902 177.895 44.3902 174.163C44.3902 170.432 41.365 167.406 37.6334 167.406C33.9017 167.406 30.8766 170.432 30.8766 174.163C30.8766 177.895 33.9017 180.92 37.6334 180.92Z" stroke="#2A2B26" stroke-width="3" stroke-linecap="round" stroke-linejoin="round"/>
</g>
<path d="M79.5887 190.721V184.393H89.4167V182.013H79.5887V175.993H90.6207V173.557H76.7887V193.157H91.0127V190.721H79.5887ZM113.718 178.177C111.198 178.177 109.126 179.241 108.006 180.921C107.026 179.073 105.122 178.177 102.854 178.177C100.614 178.177 98.7945 179.017 97.7305 180.529V178.317H95.1545V193.157H97.8425V185.513C97.8425 182.293 99.6065 180.585 102.294 180.585C104.73 180.585 106.13 182.013 106.13 184.925V193.157H108.818V185.513C108.818 182.293 110.582 180.585 113.27 180.585C115.706 180.585 117.106 182.013 117.106 184.925V193.157H119.794V184.617C119.794 180.249 117.33 178.177 113.718 178.177ZM130.144 178.177C127.764 178.177 125.552 178.849 124.012 180.081L125.132 182.097C126.28 181.117 128.072 180.501 129.836 180.501C132.496 180.501 133.812 181.817 133.812 184.085V184.617H129.556C125.132 184.617 123.592 186.577 123.592 188.957C123.592 191.533 125.72 193.325 129.08 193.325C131.404 193.325 133.056 192.541 133.952 191.197V193.157H136.5V184.197C136.5 180.137 134.204 178.177 130.144 178.177ZM129.528 191.253C127.484 191.253 126.252 190.329 126.252 188.845C126.252 187.585 127.008 186.549 129.668 186.549H133.812V188.621C133.14 190.329 131.544 191.253 129.528 191.253ZM142.819 175.461C143.883 175.461 144.639 174.677 144.639 173.669C144.639 172.717 143.855 171.961 142.819 171.961C141.783 171.961 140.999 172.745 140.999 173.725C140.999 174.705 141.783 175.461 142.819 175.461ZM141.475 193.157H144.163V178.317H141.475V193.157ZM149.295 193.157H151.983V172.381H149.295V193.157ZM170.039 178.177C167.659 178.177 165.447 178.849 163.907 180.081L165.027 182.097C166.175 181.117 167.967 180.501 169.731 180.501C172.391 180.501 173.707 181.817 173.707 184.085V184.617H169.451C165.027 184.617 163.487 186.577 163.487 188.957C163.487 191.533 165.615 193.325 168.975 193.325C171.299 193.325 172.951 192.541 173.847 191.197V193.157H176.395V184.197C176.395 180.137 174.099 178.177 170.039 178.177ZM169.423 191.253C167.379 191.253 166.147 190.329 166.147 188.845C166.147 187.585 166.903 186.549 169.563 186.549H173.707V188.621C173.035 190.329 171.439 191.253 169.423 191.253ZM192.763 172.381V180.557C191.531 178.961 189.683 178.177 187.583 178.177C183.243 178.177 180.079 181.201 180.079 185.737C180.079 190.273 183.243 193.325 187.583 193.325C189.767 193.325 191.671 192.485 192.875 190.805V193.157H195.451V172.381H192.763ZM187.807 190.973C184.951 190.973 182.795 188.901 182.795 185.737C182.795 182.573 184.951 180.529 187.807 180.529C190.635 180.529 192.791 182.573 192.791 185.737C192.791 188.901 190.635 190.973 187.807 190.973ZM211.849 172.381V180.557C210.617 178.961 208.769 178.177 206.669 178.177C202.329 178.177 199.165 181.201 199.165 185.737C199.165 190.273 202.329 193.325 206.669 193.325C208.853 193.325 210.757 192.485 211.961 190.805V193.157H214.537V172.381H211.849ZM206.893 190.973C204.037 190.973 201.881 188.901 201.881 185.737C201.881 182.573 204.037 180.529 206.893 180.529C209.721 180.529 211.877 182.573 211.877 185.737C211.877 188.901 209.721 190.973 206.893 190.973ZM222.199 180.809V178.317H219.623V193.157H222.311V185.765C222.311 182.517 224.103 180.753 226.987 180.753C227.183 180.753 227.379 180.753 227.603 180.781V178.177C224.999 178.177 223.151 179.073 222.199 180.809ZM244.191 185.821C244.191 181.257 241.139 178.177 236.855 178.177C232.571 178.177 229.407 181.341 229.407 185.737C229.407 190.161 232.599 193.325 237.387 193.325C239.851 193.325 241.895 192.485 243.239 190.917L241.755 189.181C240.663 190.385 239.207 190.973 237.471 190.973C234.531 190.973 232.431 189.237 232.095 186.633H244.135C244.163 186.381 244.191 186.045 244.191 185.821ZM236.855 180.445C239.459 180.445 241.335 182.209 241.615 184.701H232.095C232.375 182.181 234.279 180.445 236.855 180.445ZM252.18 193.325C256.128 193.325 258.592 191.617 258.592 188.929C258.592 183.161 249.184 186.017 249.184 182.517C249.184 181.341 250.332 180.473 252.684 180.473C254.14 180.473 255.624 180.781 256.968 181.649L258.116 179.521C256.828 178.681 254.644 178.177 252.712 178.177C248.904 178.177 246.524 179.969 246.524 182.629C246.524 188.537 255.904 185.653 255.904 188.985C255.904 190.245 254.868 191.001 252.376 191.001C250.444 191.001 248.428 190.357 247.168 189.461L246.048 191.589C247.28 192.569 249.716 193.325 252.18 193.325ZM266.207 193.325C270.155 193.325 272.619 191.617 272.619 188.929C272.619 183.161 263.211 186.017 263.211 182.517C263.211 181.341 264.359 180.473 266.711 180.473C268.167 180.473 269.651 180.781 270.995 181.649L272.143 179.521C270.855 178.681 268.671 178.177 266.739 178.177C262.931 178.177 260.551 179.969 260.551 182.629C260.551 188.537 269.931 185.653 269.931 188.985C269.931 190.245 268.895 191.001 266.403 191.001C264.471 191.001 262.455 190.357 261.195 189.461L260.075 191.589C261.307 192.569 263.743 193.325 266.207 193.325Z" fill="#2A2B26"/>
<rect x="1.5" y="266.206" width="534" height="93.9358" rx="17.5" fill="white" stroke="#2A2B26" stroke-width="3"/>
<g clip-path="url(#clip1)">
<path d="M51.4639 310.156H29.2843C27.5343 310.156 26.1158 311.574 26.1158 313.324V324.414C26.1158 326.164 27.5343 327.582 29.2843 327.582H51.4639C53.2139 327.582 54.6325 326.164 54.6325 324.414V313.324C54.6325 311.574 53.2139 310.156 51.4639 310.156Z" stroke="#2A2B26" stroke-width="3" stroke-linecap="round" stroke-linejoin="round"/>
<path d="M32.4528 310.156V303.818C32.4528 301.718 33.2874 299.703 34.7729 298.217C36.2584 296.732 38.2733 295.897 40.3741 295.897C42.475 295.897 44.4898 296.732 45.9753 298.217C47.4609 299.703 48.2954 301.718 48.2954 303.818V310.156" stroke="#2A2B26" stroke-width="3" stroke-linecap="round" stroke-linejoin="round"/>
</g>
<path d="M86.3647 324.512C84.834 324.512 83.3967 324.222 82.0527 323.644C80.7087 323.084 79.5233 322.3 78.4967 321.292C77.4887 320.265 76.6953 319.08 76.1167 317.736C75.5567 316.392 75.2767 314.954 75.2767 313.424C75.2767 311.874 75.5567 310.437 76.1167 309.112C76.6953 307.768 77.4887 306.592 78.4967 305.584C79.5233 304.557 80.7087 303.764 82.0527 303.204C83.3967 302.625 84.834 302.336 86.3647 302.336C87.914 302.336 89.3513 302.625 90.6767 303.204C92.0207 303.764 93.1967 304.557 94.2047 305.584C95.2313 306.592 96.0247 307.768 96.5847 309.112C97.1633 310.437 97.4527 311.874 97.4527 313.424C97.4527 314.954 97.1633 316.392 96.5847 317.736C96.0247 319.08 95.2313 320.265 94.2047 321.292C93.1967 322.3 92.0207 323.084 90.6767 323.644C89.3513 324.222 87.914 324.512 86.3647 324.512ZM111.384 324.512C109.854 324.512 108.416 324.222 107.072 323.644C105.728 323.084 104.543 322.3 103.516 321.292C102.508 320.265 101.715 319.08 101.136 317.736C100.576 316.392 100.296 314.954 100.296 313.424C100.296 311.874 100.576 310.437 101.136 309.112C101.715 307.768 102.508 306.592 103.516 305.584C104.543 304.557 105.728 303.764 107.072 303.204C108.416 302.625 109.854 302.336 111.384 302.336C112.934 302.336 114.371 302.625 115.696 303.204C117.04 303.764 118.216 304.557 119.224 305.584C120.251 306.592 121.044 307.768 121.604 309.112C122.183 310.437 122.472 311.874 122.472 313.424C122.472 314.954 122.183 316.392 121.604 317.736C121.044 319.08 120.251 320.265 119.224 321.292C118.216 322.3 117.04 323.084 115.696 323.644C114.371 324.222 112.934 324.512 111.384 324.512ZM136.404 324.512C134.873 324.512 133.436 324.222 132.092 323.644C130.748 323.084 129.562 322.3 128.536 321.292C127.528 320.265 126.734 319.08 126.156 317.736C125.596 316.392 125.316 314.954 125.316 313.424C125.316 311.874 125.596 310.437 126.156 309.112C126.734 307.768 127.528 306.592 128.536 305.584C129.562 304.557 130.748 303.764 132.092 303.204C133.436 302.625 134.873 302.336 136.404 302.336C137.953 302.336 139.39 302.625 140.716 303.204C142.06 303.764 143.236 304.557 144.244 305.584C145.27 306.592 146.064 307.768 146.624 309.112C147.202 310.437 147.492 311.874 147.492 313.424C147.492 314.954 147.202 316.392 146.624 317.736C146.064 319.08 145.27 320.265 144.244 321.292C143.236 322.3 142.06 323.084 140.716 323.644C139.39 324.222 137.953 324.512 136.404 324.512ZM161.423 324.512C159.893 324.512 158.455 324.222 157.111 323.644C155.767 323.084 154.582 322.3 153.555 321.292C152.547 320.265 151.754 319.08 151.175 317.736C150.615 316.392 150.335 314.954 150.335 313.424C150.335 311.874 150.615 310.437 151.175 309.112C151.754 307.768 152.547 306.592 153.555 305.584C154.582 304.557 155.767 303.764 157.111 303.204C158.455 302.625 159.893 302.336 161.423 302.336C162.973 302.336 164.41 302.625 165.735 303.204C167.079 303.764 168.255 304.557 169.263 305.584C170.29 306.592 171.083 307.768 171.643 309.112C172.222 310.437 172.511 311.874 172.511 313.424C172.511 314.954 172.222 316.392 171.643 317.736C171.083 319.08 170.29 320.265 169.263 321.292C168.255 322.3 167.079 323.084 165.735 323.644C164.41 324.222 162.973 324.512 161.423 324.512ZM186.443 324.512C184.912 324.512 183.475 324.222 182.131 323.644C180.787 323.084 179.601 322.3 178.575 321.292C177.567 320.265 176.773 319.08 176.195 317.736C175.635 316.392 175.355 314.954 175.355 313.424C175.355 311.874 175.635 310.437 176.195 309.112C176.773 307.768 177.567 306.592 178.575 305.584C179.601 304.557 180.787 303.764 182.131 303.204C183.475 302.625 184.912 302.336 186.443 302.336C187.992 302.336 189.429 302.625 190.755 303.204C192.099 303.764 193.275 304.557 194.283 305.584C195.309 306.592 196.103 307.768 196.663 309.112C197.241 310.437 197.531 311.874 197.531 313.424C197.531 314.954 197.241 316.392 196.663 317.736C196.103 319.08 195.309 320.265 194.283 321.292C193.275 322.3 192.099 323.084 190.755 323.644C189.429 324.222 187.992 324.512 186.443 324.512ZM211.462 324.512C209.932 324.512 208.494 324.222 207.15 323.644C205.806 323.084 204.621 322.3 203.594 321.292C202.586 320.265 201.793 319.08 201.214 317.736C200.654 316.392 200.374 314.954 200.374 313.424C200.374 311.874 200.654 310.437 201.214 309.112C201.793 307.768 202.586 306.592 203.594 305.584C204.621 304.557 205.806 303.764 207.15 303.204C208.494 302.625 209.932 302.336 211.462 302.336C213.012 302.336 214.449 302.625 215.774 303.204C217.118 303.764 218.294 304.557 219.302 305.584C220.329 306.592 221.122 307.768 221.682 309.112C222.261 310.437 222.55 311.874 222.55 313.424C222.55 314.954 222.261 316.392 221.682 317.736C221.122 319.08 220.329 320.265 219.302 321.292C218.294 322.3 217.118 323.084 215.774 323.644C214.449 324.222 213.012 324.512 211.462 324.512ZM236.482 324.512C234.951 324.512 233.514 324.222 232.17 323.644C230.826 323.084 229.641 322.3 228.614 321.292C227.606 320.265 226.813 319.08 226.234 317.736C225.674 316.392 225.394 314.954 225.394 313.424C225.394 311.874 225.674 310.437 226.234 309.112C226.813 307.768 227.606 306.592 228.614 305.584C229.641 304.557 230.826 303.764 232.17 303.204C233.514 302.625 234.951 302.336 236.482 302.336C238.031 302.336 239.469 302.625 240.794 303.204C242.138 303.764 243.314 304.557 244.322 305.584C245.349 306.592 246.142 307.768 246.702 309.112C247.281 310.437 247.57 311.874 247.57 313.424C247.57 314.954 247.281 316.392 246.702 317.736C246.142 319.08 245.349 320.265 244.322 321.292C243.314 322.3 242.138 323.084 240.794 323.644C239.469 324.222 238.031 324.512 236.482 324.512Z" fill="#18191F"/>
<path d="M488.532 29L50.0917 467.44" stroke="#18191F" stroke-width="3" stroke-linecap="round" stroke-linejoin="round"/>
<path d="M50.0917 29L488.532 467.44" stroke="#2A2B26" stroke-width="3" stroke-linecap="round" stroke-linejoin="round"/>
<defs>
<clipPath id="clip0">
<rect width="40.5408" height="40.5408" fill="white" transform="translate(17.363 162.339)"/>
</clipPath>
<clipPath id="clip1">
<rect width="38.0223" height="38.0223" fill="white" transform="translate(21.363 292.729)"/>
</clipPath>
</defs>
</svg>
